<svg class="dn" height="0" version="1.1" width="0"
  xmlns="http://www.w3.org/2000/svg" viewBox="0 0 33.008 30.109" >
  <defs>
    <g id="hpa-cart">
        <svg xmlns="http://www.w3.org/2000/svg" width="33.008" height="30.109" viewBox="0 0 33.008 30.109"><path id="Caminho_1" data-name="Caminho 1" d="M118.568,374.407a4.058,4.058,0,1,0,4.058,4.058A4.063,4.063,0,0,0,118.568,374.407Zm0,5.8a1.739,1.739,0,1,1,1.739-1.739A1.741,1.741,0,0,1,118.568,380.2Z" transform="translate(-107.128 -352.415)" fill="#018247"/>
                  <path id="Caminho_2" data-name="Caminho 2" d="M320.011,374.407a4.058,4.058,0,1,0,4.058,4.058A4.063,4.063,0,0,0,320.011,374.407Zm0,5.8a1.739,1.739,0,1,1,1.739-1.739A1.741,1.741,0,0,1,320.011,380.2Z" transform="translate(-295.584 -352.415)" fill="#018247"/>
                  <path id="Caminho_3" data-name="Caminho 3" d="M32.762,39.831a1.159,1.159,0,0,0-.913-.445H26.283a1.16,1.16,0,1,0,0,2.319h4.084l-2.323,9.354H9.285L7.272,41.7H28.043V39.386H6.773L5.656,34.195a1.16,1.16,0,0,0-1.134-.916H1.16a1.16,1.16,0,0,0,0,2.319H3.586L7.215,52.462a1.16,1.16,0,0,0,1.134.916h20.6a1.16,1.16,0,0,0,1.125-.88l2.9-11.672A1.159,1.159,0,0,0,32.762,39.831Z" transform="translate(0 -33.279)" fill="#018247"/>
        </svg> 
    </g>
    <g id="hpa-hamburguer-menu">
      <svg xmlns="http://www.w3.org/2000/svg" width="41" height="27" viewBox="0 0 41 27">
        <g id="Grupo_264" data-name="Grupo 264" transform="translate(-11 -31)">
          <rect id="Retângulo_1693" data-name="Retângulo 1693" width="41" height="6" transform="translate(11 31)" fill="#9d9d9d"/>
          <rect id="Retângulo_1694" data-name="Retângulo 1694" width="41" height="5" transform="translate(11 42)" fill="#9d9d9d"/>
          <rect id="Retângulo_1695" data-name="Retângulo 1695" width="41" height="6" transform="translate(11 52)" fill="#9d9d9d"/>
        </g>
      </svg>    
    </g>
    <g id="icon-menu">
        <svg xmlns="http://www.w3.org/2000/svg" width="21" height="21" viewBox="0 0 21 21">
          <g id="Grupo_191" data-name="Grupo 191" transform="translate(-1246 -165)">
            <g id="Retângulo_563" data-name="Retângulo 563" transform="translate(1246 165)" fill="none" stroke="#fff" stroke-width="2">
              <rect width="9" height="9" stroke="none"/>
              <rect x="1" y="1" width="7" height="7" fill="none"/>
            </g>
            <g id="Retângulo_566" data-name="Retângulo 566" transform="translate(1246 177)" fill="none" stroke="#fff" stroke-width="2">
              <rect width="9" height="9" stroke="none"/>
              <rect x="1" y="1" width="7" height="7" fill="none"/>
            </g>
            <g id="Retângulo_564" data-name="Retângulo 564" transform="translate(1258 165)" fill="none" stroke="#fff" stroke-width="2">
              <rect width="9" height="9" stroke="none"/>
              <rect x="1" y="1" width="7" height="7" fill="none"/>
            </g>
            <g id="Retângulo_565" data-name="Retângulo 565" transform="translate(1258 177)" fill="none" stroke="#fff" stroke-width="2">
              <rect width="9" height="9" stroke="none"/>
              <rect x="1" y="1" width="7" height="7" fill="none"/>
            </g>
          </g>
      </svg>
    </g>
     <g id="ico-eletrodomestico">
      <svg xmlns="http://www.w3.org/2000/svg" width="20.97" height="34.706" viewBox="0 0 20.97 34.706">
        <g id="Grupo_232" data-name="Grupo 232" transform="translate(-27.583 -0.115)">
          <g id="Grupo_230" data-name="Grupo 230">
            <path id="Caminho_155" data-name="Caminho 155" d="M48.553,11.753V1.947A1.892,1.892,0,0,0,46.61.115H29.526a1.892,1.892,0,0,0-1.943,1.832v9.806a1.781,1.781,0,0,0,.643,1.357,1.781,1.781,0,0,0-.643,1.357v16.59a1.892,1.892,0,0,0,1.943,1.832h.264v1.457a.49.49,0,0,0,.5.475h3.6a.49.49,0,0,0,.5-.475V32.889h7.342v1.457a.49.49,0,0,0,.5.475h3.6a.49.49,0,0,0,.5-.475V32.889h.264a1.892,1.892,0,0,0,1.943-1.832V14.467a1.781,1.781,0,0,0-.643-1.357,1.781,1.781,0,0,0,.643-1.357ZM33.389,33.871H30.8v-.982h2.591Zm11.949,0H42.747v-.982h2.591Zm2.207-19.4v16.59a.911.911,0,0,1-.936.882H29.526a.911.911,0,0,1-.936-.882V14.467a.911.911,0,0,1,.936-.882H46.61a.911.911,0,0,1,.936.882ZM29.526,12.635a.911.911,0,0,1-.936-.882V1.947a.911.911,0,0,1,.936-.882H46.61a.911.911,0,0,1,.936.882v9.807a.911.911,0,0,1-.936.882Z" fill="#fff"/>
            <path id="Caminho_156" data-name="Caminho 156" d="M82.783,12.682H80.912a.5.5,0,0,0-.5.5v6.046a.5.5,0,0,0,.5.5h1.871a.5.5,0,0,0,.5-.5V13.186A.5.5,0,0,0,82.783,12.682Zm-.5,6.046h-.864V13.69h.864Z" transform="translate(-37.616 -8.949)" fill="#fff"/>
          </g>
          <path id="Caminho_157" data-name="Caminho 157" d="M80.912,63.312h1.871a.5.5,0,0,0,.5-.5V56.762a.5.5,0,0,0-.5-.5H80.912a.5.5,0,0,0-.5.5v6.046a.5.5,0,0,0,.5.5Zm.5-6.046h.864V62.3h-.864Z" transform="translate(-37.616 -41.127)" fill="#fff"/>
        </g>
      </svg>   
     </g>
      <g id="ico_eletro">
        <svg xmlns="http://www.w3.org/2000/svg" width="25.175" height="30.826" viewBox="0 0 25.175 30.826">
          <g id="blender" transform="translate(-43.998)">
            <g id="Grupo_79" data-name="Grupo 79" transform="translate(43.998 0)">
              <g id="Grupo_78" data-name="Grupo 78" transform="translate(0 0)">
                <path id="Caminho_158" data-name="Caminho 158" d="M183.233,368.072a2.569,2.569,0,1,0,1.817,3.146A2.569,2.569,0,0,0,183.233,368.072Zm-2.154,2.083a1.527,1.527,0,0,1,2.481-.767l-2.5,1.445A1.534,1.534,0,0,1,181.079,370.155Zm2.98.8a1.536,1.536,0,0,1-2.485.771l2.507-1.447A1.535,1.535,0,0,1,184.059,370.953Z" transform="translate(-171.266 -344.351)" fill="#fff"/>
                <path id="Caminho_159" data-name="Caminho 159" d="M66.6,4.11h-2.4l.34-3.545c0-.008,0-.016,0-.024s0-.018,0-.027a.466.466,0,0,0-.018-.089.511.511,0,0,0-.018-.089.524.524,0,0,0-.066-.113.525.525,0,0,0-.032-.054s-.007,0-.01-.007a.507.507,0,0,0-.127-.092L64.24.043a.513.513,0,0,0-.2-.043H44.512a.514.514,0,0,0-.458.748L46.64,5.81,48.3,19.443a3.592,3.592,0,0,0,1.376,2.411A3.581,3.581,0,0,0,47.54,24.3l-1.471,5.885a.514.514,0,0,0,.5.638H64.035a.514.514,0,0,0,.5-.638L63.062,24.3a3.585,3.585,0,0,0-1.853-2.323,3.579,3.579,0,0,0,1.548-2.627L63.915,7.193h1.662a.514.514,0,0,1,.514.49l-.9,8.066a1.44,1.44,0,0,0-.01.188,1.531,1.531,0,0,0,3.054.154l.937-9.412A2.572,2.572,0,0,0,66.6,4.11ZM62.066,24.552,63.377,29.8H47.225l1.312-5.247a2.566,2.566,0,0,1,2.492-1.946h8.544A2.566,2.566,0,0,1,62.066,24.552Zm-.331-5.3a2.558,2.558,0,0,1-2.557,2.325h-7.31a2.564,2.564,0,0,1-2.506-2.055h1.83a.514.514,0,0,0,0-1.028H49.217l-.25-2.055h2.224a.514.514,0,0,0,0-1.028H48.842l-.25-2.055h2.6a.514.514,0,0,0,0-1.028H48.468l-.25-2.055h2.973a.514.514,0,0,0,0-1.028h-3.1l-.25-2.055h3.348a.514.514,0,0,0,0-1.028H47.718l-.069-.57a.513.513,0,0,0-.051-.172l-2.246-4.4H63.47Zm5.479-3.265a.5.5,0,0,1-1-.051l.906-8.174a.514.514,0,0,0,0-.057,1.541,1.541,0,0,0-1.541-1.541H64.013l.1-1.028H66.6a1.537,1.537,0,0,1,1.544,1.49Z" transform="translate(-43.998 0)" fill="#fff"/>
              </g>
            </g>
          </g>
        </svg>
      </g>
      <g id="ico_moveis">
        <svg xmlns="http://www.w3.org/2000/svg" width="30.542" height="34" viewBox="0 0 30.542 34">
          <g id="armchair" transform="translate(-18)">
            <g id="Grupo_80" data-name="Grupo 80" transform="translate(18)">
              <path id="Caminho_160" data-name="Caminho 160" d="M45.431,11.41V4.994C45.431,1.306,42.857,0,40.436,0H26.068c-2.42,0-4.994,1.306-4.994,4.994V11.41A4.082,4.082,0,0,0,18,15.367v10.3A4.017,4.017,0,0,0,22.034,30v2.612A1.377,1.377,0,0,0,23.417,34h1.421a1.377,1.377,0,0,0,1.383-1.383V30h14.1v2.612A1.377,1.377,0,0,0,41.7,34h1.421a1.377,1.377,0,0,0,1.383-1.383V30a4.026,4.026,0,0,0,4.034-4.341V15.329A4.2,4.2,0,0,0,45.431,11.41ZM22.457,4.994a3.3,3.3,0,0,1,3.611-3.65H40.436a3.27,3.27,0,0,1,3.611,3.611v6.3a4.1,4.1,0,0,0-3.727,4.072v.96H26.183v-.96a4.1,4.1,0,0,0-3.727-4.072V4.994ZM40.283,17.672v4.764h-14.1V17.672ZM24.838,32.617H23.417V30h1.421v2.612Zm18.249,0H41.666V30h1.421Zm4.072-6.954h-.038a2.685,2.685,0,0,1-3,3H22.38a2.685,2.685,0,0,1-3-3V15.329a2.728,2.728,0,1,1,5.455,0v7.8a.689.689,0,0,0,.692.692H41.012a.689.689,0,0,0,.692-.692v-7.8a2.728,2.728,0,1,1,5.455,0Z" transform="translate(-18 0)" fill="#fff"/>
            </g>
          </g>
        </svg>
      </g>
      <g id="ico_casa">
        <svg xmlns="http://www.w3.org/2000/svg" width="32.161" height="32.161" viewBox="0 0 32.161 32.161">
          <g id="hammer" transform="translate(0 0.001)">
            <path id="Caminho_167" data-name="Caminho 167" d="M31.344,26.207,16.981,8.5a.939.939,0,0,0-.08-1.07L15.729,5.988c2.145-1.6,3.615-2.021,6.837-2.136A.943.943,0,0,0,23.009,2.1C18.1-.786,13.5-.7,9.7,2.357l-4,3.222a.942.942,0,0,0-.14,1.328.929.929,0,0,1-.143,1.316A.947.947,0,0,1,4.09,8.082.942.942,0,0,0,2.767,7.94L1.053,9.318a2.815,2.815,0,0,0-.423,3.97L3,16.212a2.837,2.837,0,0,0,3.975.422l1.714-1.378a.942.942,0,0,0,.142-1.328.932.932,0,0,1,.141-1.316.949.949,0,0,1,1.33.14.942.942,0,0,0,1.043.3L25.665,30.8a3.652,3.652,0,1,0,5.679-4.594Zm-18.5-14.3,2.705-2.177L17.6,12.262,14.89,14.443ZM6.753,13.044A2.8,2.8,0,0,0,6.9,14.28l-1.1.887a.949.949,0,0,1-1.33-.14L2.093,12.1a.932.932,0,0,1,.14-1.315L3.341,9.9A2.828,2.828,0,0,0,7.494,6.554l3.391-2.73a8.319,8.319,0,0,1,8.146-1.475A12.082,12.082,0,0,0,13.8,5.1a.942.942,0,0,0-.141,1.327l1.183,1.459-3.793,3.053a2.832,2.832,0,0,0-4.3,2.105ZM29.619,29.882a1.767,1.767,0,0,1-2.488-.265L16.073,15.91l2.718-2.184L29.88,27.394a1.767,1.767,0,0,1-.261,2.489Z" transform="translate(0 0)" fill="#fff"/>
          </g>
        </svg>
      </g>
      <g id="ico_maquina">
        <svg xmlns="http://www.w3.org/2000/svg" width="44.748" height="30.728" viewBox="0 0 44.748 30.728">
          <g id="drill" transform="translate(0 -73.051)">
            <g id="Grupo_82" data-name="Grupo 82" transform="translate(0 73.051)">
              <g id="Grupo_81" data-name="Grupo 81">
                <path id="Caminho_163" data-name="Caminho 163" d="M40.91,73.473l-17.158-.422a1.1,1.1,0,0,0-.355.058l-6.612,2.5a.977.977,0,0,0-.5.441H10.767a.994.994,0,0,0-.413.086l-4.117,2A.961.961,0,0,0,5.7,79v.988H.96a.96.96,0,0,0,0,1.919H5.691v.221a.971.971,0,0,0,.537.864l3.743,1.814.374.173a1.027,1.027,0,0,0,.413.086h5.393v.048a.976.976,0,0,0,.691.921l6.612,1.977a1.371,1.371,0,0,0,.278.029h1.631v2.188a1.977,1.977,0,0,0,2,1.938h2.13v4.7H28.444a3.455,3.455,0,1,0,0,6.909h9.481a3.45,3.45,0,0,0,3.464-3.436,3.488,3.488,0,0,0-2.975-3.407V88.05h2.418a3.9,3.9,0,0,0,3.915-3.887V77.427A3.918,3.918,0,0,0,40.91,73.473ZM9.433,82.417,7.61,81.534V79.605l1.823-.883Zm6.718.739h-4.8V77.974h4.8Zm6.622,2.677-4.7-1.42V77.168l4.7-1.775Zm4.587,4.424c-.019,0-.077,0-.077-.019V88.05H29.49v2.207Zm12.1,10.1a1.519,1.519,0,0,1-.451,1.075,1.492,1.492,0,0,1-1.084.441H28.444a1.522,1.522,0,0,1-1.535-1.507v-.01a1.519,1.519,0,0,1,.451-1.075l.01-.019a1.528,1.528,0,0,1,1.075-.461h2a.942.942,0,0,0,.969-.912V88.05H36.5v9.817a.911.911,0,0,0,.892.931h.537A1.55,1.55,0,0,1,39.461,100.353Zm3.368-16.228a1.989,1.989,0,0,1-1.958,2.006H24.692V74.989l16.17.4a2.041,2.041,0,0,1,1.967,2.034Z" transform="translate(0 -73.051)" fill="#fff"/>
              </g>
            </g>
            <g id="Grupo_84" data-name="Grupo 84" transform="translate(38.415 77.465)">
              <g id="Grupo_83" data-name="Grupo 83">
                <path id="Caminho_164" data-name="Caminho 164" d="M401.26,119.051a.962.962,0,0,0-.96.96v4.7a.96.96,0,1,0,1.919,0v-4.7A.962.962,0,0,0,401.26,119.051Z" transform="translate(-400.3 -119.051)" fill="#fff"/>
              </g>
            </g>
            <g id="Grupo_86" data-name="Grupo 86" transform="translate(35.344 77.465)">
              <g id="Grupo_85" data-name="Grupo 85">
                <path id="Caminho_165" data-name="Caminho 165" d="M369.26,119.051a.962.962,0,0,0-.96.96v4.7a.96.96,0,1,0,1.919,0v-4.7A.962.962,0,0,0,369.26,119.051Z" transform="translate(-368.3 -119.051)" fill="#fff"/>
              </g>
            </g>
            <g id="Grupo_88" data-name="Grupo 88" transform="translate(32.369 77.465)">
              <g id="Grupo_87" data-name="Grupo 87">
                <path id="Caminho_166" data-name="Caminho 166" d="M338.26,119.051a.962.962,0,0,0-.96.96v4.7a.96.96,0,1,0,1.919,0v-4.7A.962.962,0,0,0,338.26,119.051Z" transform="translate(-337.3 -119.051)" fill="#fff"/>
              </g>
            </g>
          </g>
        </svg>
      </g>
      <g id="ico_campo">
        <svg xmlns="http://www.w3.org/2000/svg" width="35" height="35" viewBox="0 0 18.07 36.139">
          <g id="Grupo_246" data-name="Grupo 246" transform="translate(-51 -51)">
            <g id="Grupo_246-2" data-name="Grupo 246" transform="translate(51 51)">
              <path id="Caminho_219" data-name="Caminho 219" d="M62.5,72.355H60.856V67.427a.822.822,0,0,1,.637-.8l4.188-.962a2.465,2.465,0,0,0,1.745-2.358v-2.45c0-1.57-.654-6.517-.66-6.568a2,2,0,0,0-.76-1.4,1.99,1.99,0,0,0-.223.911v5.409a2.464,2.464,0,1,1-4.928,0V54.479a2.136,2.136,0,0,0-.821-1.691,2.136,2.136,0,0,0-.821,1.691v4.734a2.464,2.464,0,1,1-4.928,0V53.8a1.99,1.99,0,0,0-.223-.911,1.97,1.97,0,0,0-.756,1.369c-.01.076-.664,5.024-.664,6.594v2.45a2.476,2.476,0,0,0,1.787,2.37l4.146.95a.822.822,0,0,1,.637.8v4.928H57.571V68.081l-3.551-.815A4.136,4.136,0,0,1,51,63.306v-2.45c0-1.677.647-6.576.675-6.784a3.591,3.591,0,0,1,1.983-2.856l.26-.131a.821.821,0,0,1,.948.154A3.6,3.6,0,0,1,55.928,53.8v5.409a.821.821,0,0,0,1.643,0V54.479a3.774,3.774,0,0,1,2.1-3.393.825.825,0,0,1,.734,0,3.774,3.774,0,0,1,2.1,3.393v4.734a.821.821,0,0,0,1.643,0V53.8A3.6,3.6,0,0,1,65.2,51.241a.823.823,0,0,1,.948-.154l.26.131A3.6,3.6,0,0,1,68.4,54.1c.025.182.672,5.08.672,6.757v2.45a4.126,4.126,0,0,1-2.978,3.949l-3.593.825Z" transform="translate(-51 -51)" fill="#fff"/>
            </g>
            <g id="Grupo_247" data-name="Grupo 247" transform="translate(56.749 70.712)">
              <path id="Caminho_220" data-name="Caminho 220" d="M61.285,91.427A3.289,3.289,0,0,1,58,88.142V75.821A.822.822,0,0,1,58.821,75h4.928a.822.822,0,0,1,.821.821v12.32A3.289,3.289,0,0,1,61.285,91.427ZM59.643,76.643v11.5a1.643,1.643,0,0,0,3.285,0v-11.5Z" transform="translate(-58 -75)" fill="#fff"/>
            </g>
            <g id="Grupo_248" data-name="Grupo 248" transform="translate(61.053 63.566)">
              <rect id="Retângulo_1696" data-name="Retângulo 1696" width="2" height="4" transform="translate(-0.053 0.434)" fill="#fff"/>
            </g>
          </g>
        </svg>
      </g>

  </defs>
</svg> 
